<svg xmlns="http://www.w3.org/2000/svg" width="680" height="415" viewBox="0 0 680 415"><rect width="680" height="415" fill="#1a1a1a"/><g font-family="'DM Sans','Noto Sans KR','Malgun Gothic',Arial,sans-serif"><text x="28" y="39" font-size="13" fill="#b0aca4" font-weight="300">관심 분야 · 음성 AI · 모델 평가 · AI API를 활용한 서비스 개발</text><text x="28" y="79" font-size="13" fill="#b0aca4" font-weight="300">ML</text><rect x="70" y="63" width="60" height="23" rx="3" fill="#2a2a2a" stroke="#333"/><text x="78" y="79" font-size="11" fill="#dedad2" font-weight="300">Python</text><rect x="136" y="63" width="67" height="23" rx="3" fill="#2a2a2a" stroke="#333"/><text x="144" y="79" font-size="11" fill="#dedad2" font-weight="300">PyTorch</text><rect x="209" y="63" width="67" height="23" rx="3" fill="#2a2a2a" stroke="#333"/><text x="217" y="79" font-size="11" fill="#dedad2" font-weight="300">librosa</text><rect x="282" y="63" width="102" height="23" rx="3" fill="#2a2a2a" stroke="#333"/><text x="290" y="79" font-size="11" fill="#dedad2" font-weight="300">scikit-learn</text><text x="28" y="116" font-size="13" fill="#b0aca4" font-weight="300">App</text><rect x="70" y="100" width="46" height="23" rx="3" fill="#2a2a2a" stroke="#333"/><text x="78" y="116" font-size="11" fill="#dedad2" font-weight="300">Java</text><rect x="122" y="100" width="67" height="23" rx="3" fill="#2a2a2a" stroke="#333"/><text x="130" y="116" font-size="11" fill="#dedad2" font-weight="300">Android</text><rect x="195" y="100" width="60" height="23" rx="3" fill="#2a2a2a" stroke="#333"/><text x="203" y="116" font-size="11" fill="#dedad2" font-weight="300">SQLite</text><rect x="261" y="100" width="74" height="23" rx="3" fill="#2a2a2a" stroke="#333"/><text x="269" y="116" font-size="11" fill="#dedad2" font-weight="300">Retrofit</text><rect x="341" y="100" width="60" height="23" rx="3" fill="#2a2a2a" stroke="#333"/><text x="349" y="116" font-size="11" fill="#dedad2" font-weight="300">OkHttp</text><g transform="translate(0 154)"><text x="28" y="42" font-size="11" fill="#e8a045" font-weight="300">03</text><text x="62" y="42" font-size="13" fill="#b0aca4" font-weight="300">BACKGROUND</text><path d="M280 38H652" stroke="#333"/></g><rect x="28" y="226" width="310" height="157" rx="6" fill="#222" stroke="#333"/><rect x="340" y="226" width="312" height="157" rx="6" fill="#222" stroke="#333"/><text x="52" y="258" font-size="11" fill="#e8a045" font-weight="300">EDUCATION</text><text x="52" y="289" font-size="16" fill="#f5f2ec" font-weight="600">순천향대학교</text><text x="52" y="315" font-size="13" fill="#b0aca4" font-weight="300">컴퓨터공학과</text><text x="52" y="343" font-size="13" fill="#b0aca4" font-weight="300">2027.02 졸업 예정</text><text x="364" y="258" font-size="11" fill="#e8a045" font-weight="300">EXPERIENCE &amp; CERT</text><text x="364" y="289" font-size="13" fill="#dedad2" font-weight="300">CSE 연구실 · 2년</text><text x="364" y="315" font-size="13" fill="#dedad2" font-weight="300">IPL 연구실 · 1년</text><text x="364" y="343" font-size="13" fill="#dedad2" font-weight="300">ADsP · 데이터분석 준전문가</text></g></svg>